<?xml version='1.0' encoding='iso-8859-1'?>
<svg version="1.1" xmlns="http://www.w3.org/2000/svg" viewBox="0 0 253.334 253.334" xmlns:xlink="http://www.w3.org/1999/xlink" enable-background="new 0 0 253.334 253.334">
  <g>
    <rect width="30" x="111.666" y="61.283" height="41.667"/>
    <path d="m154.493,99.346c6.006,6.784 9.313,15.509 9.313,24.565 0,20.479-16.661,37.14-37.14,37.14s-37.139-16.661-37.139-37.14c0-9.036 3.294-17.744 9.275-24.522l-22.494-19.85c-10.821,12.263-16.781,28.021-16.781,44.372 0,37.021 30.118,67.14 67.139,67.14s67.14-30.119 67.14-67.14c0-16.39-5.984-32.176-16.851-44.45l-22.462,19.885z"/>
    <path d="M126.666,0C56.823,0,0,56.822,0,126.667s56.822,126.667,126.666,126.667c69.845,0,126.667-56.822,126.667-126.667   S196.511,0,126.666,0z M126.666,223.334C73.365,223.334,30,179.97,30,126.667S73.365,30,126.666,30   c53.303,0,96.667,43.364,96.667,96.667S179.969,223.334,126.666,223.334z"/>
  </g>
</svg>
